<svg width="663.1999999999999px" height="178.4px" xmlns="http://www.w3.org/2000/svg" viewBox="-81.59999999999997 -14.200000000000003 663.1999999999999 178.4" style="background: none;" preserveAspectRatio="xMidYMid"><defs><filter id="editing-marble" x="-100%" y="-100%" width="300%" height="300%"><feFlood flood-color="#da9c6c" result="flood-1"></feFlood><feComposite operator="in" in="flood-1" in2="SourceAlpha" result="flood-2"></feComposite><feTurbulence baseFrequency="0.2" type="fractalNoise" numOctaves="1" seed="2" result="bs-1"></feTurbulence><feGaussianBlur stdDeviation="2.5" in="flood-2" result="bs-2"></feGaussianBlur><feDisplacementMap scale="110" in="bs-2" in2="bs-1" result="bs-3"></feDisplacementMap><feComposite operator="in" in="bs-3" in2="SourceAlpha" result="texture"></feComposite><feMerge><feMergeNode in="SourceGraphic"></feMergeNode><feMergeNode in="texture"></feMergeNode></feMerge></filter></defs><g filter="url(#editing-marble)"><g transform="translate(15.17645514011383, 121)"><path d="M31.60-35.10L31.60-35.10L31.60-35.10Q33-38.80 33-42L33-42L33-42Q33-47.90 28.20-47.90L28.20-47.90L28.20-47.90Q25.70-47.90 23.65-45.65L23.65-45.65L23.65-45.65Q21.60-43.40 21.60-40.60L21.60-40.60L21.60-40.60Q21.60-38.60 23.20-37L23.20-37L23.20-37Q25.50-34.80 31.40-31.20L31.40-31.20L31.40-31.20Q37.30-27.60 39.55-24.65L39.55-24.65L39.55-24.65Q41.80-21.70 41.80-17.65L41.80-17.65L41.80-17.65Q41.80-13.60 39.85-9.90L39.85-9.90L39.85-9.90Q37.90-6.20 34.40-3.60L34.40-3.60L34.40-3.60Q26.90 2 14.90 2L14.90 2L14.90 2Q8.40 2 3.40-1.40L3.40-1.40L3.40-1.40Q-1.60-4.70-1.60-8.60L-1.60-8.60L-1.60-8.60Q-1.60-12.50 1.25-14.80L1.25-14.80L1.25-14.80Q4.10-17.10 8.30-17.10L8.30-17.10L8.30-17.10Q12.50-17.10 15.10-15.50L15.10-15.50L15.10-15.50Q13.80-12.20 13.80-10L13.80-10L13.80-10Q13.80-3.40 19.40-3.40L19.40-3.40L19.40-3.40Q21.80-3.40 23.40-4.90L23.40-4.90L23.40-4.90Q25-6.40 25-9L25-9L25-9Q25-14.10 16.40-19.50L16.40-19.50L16.40-19.50Q9.40-24.10 7.80-25.90L7.80-25.90L7.80-25.90Q5.10-29.10 5.10-33.10L5.10-33.10L5.10-33.10Q5.10-37.10 7-40.90L7-40.90L7-40.90Q8.90-44.70 12.40-47.40L12.40-47.40L12.40-47.40Q19.70-53 32.40-53L32.40-53L32.40-53Q38.90-53 42.75-50.40L42.75-50.40L42.75-50.40Q46.60-47.80 46.60-43.40L46.60-43.40L46.60-43.40Q46.60-39 43.95-36.50L43.95-36.50L43.95-36.50Q41.30-34 36.50-34L36.50-34L36.50-34Q33.20-34 31.60-35.10ZM92.60 2L92.60 2L92.60 2Q80.50 2 80.50-7.40L80.50-7.40L80.50-7.40Q80.60-10 81.40-14.40L81.40-14.40L83.20-23.60L83.20-23.60Q85.90-36.60 85.90-39.50L85.90-39.50L85.90-39.50Q85.90-45.30 82.50-45.30L82.50-45.30L82.50-45.30Q76.80-45.30 73.80-30.40L73.80-30.40L67.90 0L47.80 2L58.20-51.10L74.60-53L73-43.20L73-43.20Q77.70-53 92.10-53L92.10-53L92.10-53Q99.10-53 102.05-50.05L102.05-50.05L102.05-50.05Q105-47.10 105-40.50L105-40.50L105-40.50Q105-34.30 101.80-19.80L101.80-19.80L101.80-19.80Q100.30-13.30 100.30-10.85L100.30-10.85L100.30-10.85Q100.30-8.40 101.65-7L101.65-7L101.65-7Q103-5.60 105-5.40L105-5.40L105-5.40Q104-2 100.55 0L100.55 0L100.55 0Q97.10 2 92.60 2ZM117.35-3L117.35-3L117.35-3Q115.00-5.60 113.95-9.70L113.95-9.70L113.95-9.70Q112.90-13.80 112.90-20.50L112.90-20.50L112.90-20.50Q112.90-27.20 115.20-33.30L115.20-33.30L115.20-33.30Q117.50-39.40 121.70-43.80L121.70-43.80L121.70-43.80Q130.30-53 144.50-53L144.50-53L144.50-53Q149.60-53 153.30-51.30L153.30-51.30L170.40-53L163-14L163-14Q162.70-12.80 162.70-10.60L162.70-10.60L162.70-10.60Q162.70-8.40 164.05-7L164.05-7L164.05-7Q165.40-5.60 167.40-5.40L167.40-5.40L167.40-5.40Q166.40-2 162.75 0L162.75 0L162.75 0Q159.10 2 155 2L155 2L155 2Q150.90 2 148.15 0.45L148.15 0.45L148.15 0.45Q145.40-1.10 144.60-3.70L144.60-3.70L144.60-3.70Q143-1.20 139.60 0.40L139.60 0.40L139.60 0.40Q136.20 2 131.65 2L131.65 2L131.65 2Q127.10 2 123.40 0.80L123.40 0.80L123.40 0.80Q119.70-0.40 117.35-3ZM138.45-43.60L138.45-43.60L138.45-43.60Q137.30-41.80 136.30-38.75L136.30-38.75L136.30-38.75Q135.30-35.70 133.65-27.55L133.65-27.55L133.65-27.55Q132-19.40 132-13.60L132-13.60L132-13.60Q132-7.80 132.90-6.10L132.90-6.10L132.90-6.10Q133.80-4.40 135.40-4.40L135.40-4.40L135.40-4.40Q138.60-4.40 140.95-7.45L140.95-7.45L140.95-7.45Q143.30-10.50 144.20-15.90L144.20-15.90L149.50-45.20L149.50-45.20Q147.40-47 144.95-47L144.95-47L144.95-47Q142.50-47 141.05-46.20L141.05-46.20L141.05-46.20Q139.60-45.40 138.45-43.60ZM222.40-6.85L222.40-6.85L222.40-6.85Q218.20-2.60 212.45-0.30L212.45-0.30L212.45-0.30Q206.70 2 201.00 2L201.00 2L201.00 2Q195.30 2 193.30 1L193.30 1L190.20 18L169.90 20L183.70-51L200.00-52.70L198.70-45.80L198.70-45.80Q202.90-52.90 211.60-52.90L211.60-52.90L211.60-52.90Q221.40-52.90 226.60-46.60L226.60-46.60L226.60-46.60Q231.20-40.90 231.20-32.20L231.20-32.20L231.20-32.20Q231.20-23.50 228.90-17.30L228.90-17.30L228.90-17.30Q226.60-11.10 222.40-6.85ZM199.80-34.90L194.50-5.60L194.50-5.60Q196.60-3.80 199.20-3.80L199.20-3.80L199.20-3.80Q201.80-3.80 203.30-4.80L203.30-4.80L203.30-4.80Q204.80-5.80 205.90-7.80L205.90-7.80L205.90-7.80Q208.90-13.20 211.30-29.60L211.30-29.60L211.30-29.60Q212.00-34.40 212.00-39.10L212.00-39.10L212.00-39.10Q212.00-43.80 210.95-45.30L210.95-45.30L210.95-45.30Q209.90-46.80 207.90-46.80L207.90-46.80L207.90-46.80Q201.80-46.80 199.80-34.90L199.80-34.90ZM289.30-53L289.30-53L289.30-53Q292.90-53 295.70-52.20L295.70-52.20L295.70-52.20Q295.80-52.60 296-53.70L296-53.70L296.50-56.80L296.50-56.80Q296.90-58.80 297.50-62.10L297.50-62.10L299.10-70L319-72L307.90-14L307.90-14Q307.80-13.40 307.80-12.40L307.80-12.40L307.80-10.80L307.80-10.80Q307.80-8.60 308.90-6.95L308.90-6.95L308.90-6.95Q310-5.30 311.80-5.30L311.80-5.30L311.80-5.30Q309.80-0.60 303.70 1.40L303.70 1.40L303.70 1.40Q301.60 2 298.65 2L298.65 2L298.65 2Q295.70 2 293 0.45L293 0.45L293 0.45Q290.30-1.10 289.50-3.70L289.50-3.70L289.50-3.70Q287.90-1.10 284.70 0.45L284.70 0.45L284.70 0.45Q281.50 2 276.85 2L276.85 2L276.85 2Q272.20 2 268.35 0.80L268.35 0.80L268.35 0.80Q264.50-0.40 262.10-3L262.10-3L262.10-3Q257.70-8.10 257.70-19.70L257.70-19.70L257.70-19.70Q257.70-34.70 266.50-43.80L266.50-43.80L266.50-43.80Q275.30-53 289.30-53ZM288.60-47L288.60-47L288.60-47Q284.90-47 282.90-43L282.90-43L282.90-43Q280.90-39 278.85-29.10L278.85-29.10L278.85-29.10Q276.80-19.20 276.80-10.30L276.80-10.30L276.80-10.30Q276.80-4.20 280.40-4.20L280.40-4.20L280.40-4.20Q283.60-4.20 285.85-7.40L285.85-7.40L285.85-7.40Q288.10-10.60 289-15.90L289-15.90L294.40-45.20L294.40-45.20Q292.30-47 288.60-47ZM324.65-3L324.65-3L324.65-3Q322.30-5.60 321.25-9.70L321.25-9.70L321.25-9.70Q320.20-13.80 320.20-20.50L320.20-20.50L320.20-20.50Q320.20-27.20 322.50-33.30L322.50-33.30L322.50-33.30Q324.80-39.40 329-43.80L329-43.80L329-43.80Q337.60-53 351.80-53L351.80-53L351.80-53Q356.90-53 360.60-51.30L360.60-51.30L377.70-53L370.30-14L370.30-14Q370-12.80 370-10.60L370-10.60L370-10.60Q370-8.40 371.35-7L371.35-7L371.35-7Q372.70-5.60 374.70-5.40L374.70-5.40L374.70-5.40Q373.70-2 370.05 0L370.05 0L370.05 0Q366.40 2 362.30 2L362.30 2L362.30 2Q358.20 2 355.45 0.45L355.45 0.45L355.45 0.45Q352.70-1.10 351.90-3.70L351.90-3.70L351.90-3.70Q350.30-1.20 346.90 0.40L346.90 0.40L346.90 0.40Q343.50 2 338.95 2L338.95 2L338.95 2Q334.40 2 330.70 0.80L330.70 0.80L330.70 0.80Q327-0.40 324.65-3ZM345.75-43.60L345.75-43.60L345.75-43.60Q344.60-41.80 343.60-38.75L343.60-38.75L343.60-38.75Q342.60-35.70 340.95-27.55L340.95-27.55L340.95-27.55Q339.30-19.40 339.30-13.60L339.30-13.60L339.30-13.60Q339.30-7.80 340.20-6.10L340.20-6.10L340.20-6.10Q341.10-4.40 342.70-4.40L342.70-4.40L342.70-4.40Q345.90-4.40 348.25-7.45L348.25-7.45L348.25-7.45Q350.60-10.50 351.50-15.90L351.50-15.90L356.80-45.20L356.80-45.20Q354.70-47 352.25-47L352.25-47L352.25-47Q349.80-47 348.35-46.20L348.35-46.20L348.35-46.20Q346.90-45.40 345.75-43.60ZM384.70-10L384.70-10L384.70-10Q384.70-12.70 386.10-19.50L386.10-19.50L391.40-46.50L385.50-46.50L385.90-49.50L385.90-49.50Q397.90-53.10 409.50-61.90L409.50-61.90L414.30-61.90L411.90-51L419.70-51L418.80-46.50L411.10-46.50L406.00-19.50L406.00-19.50Q404.70-13.30 404.70-11.20L404.70-11.20L404.70-11.20Q404.70-6.40 408.90-5.40L408.90-5.40L408.90-5.40Q407.90-2 404.30 0L404.30 0L404.30 0Q400.70 2 395.60 2L395.60 2L395.60 2Q390.50 2 387.60-1.20L387.60-1.20L387.60-1.20Q384.70-4.40 384.70-10ZM459.30-16.90L459.30-16.90L459.30-16.90Q461.80-15.20 461.80-11.45L461.80-11.45L461.80-11.45Q461.80-7.70 459.90-5.30L459.90-5.30L459.90-5.30Q458.00-2.90 454.90-1.30L454.90-1.30L454.90-1.30Q448.50 2 441.60 2L441.60 2L441.60 2Q434.70 2 430.65 0.50L430.65 0.50L430.65 0.50Q426.60-1 423.90-3.80L423.90-3.80L423.90-3.80Q418.60-9.10 418.60-18.80L418.60-18.80L418.60-18.80Q418.60-33.90 426.80-43.10L426.80-43.10L426.80-43.10Q435.60-53 450.90-53L450.90-53L450.90-53Q460.40-53 465.10-49L465.10-49L465.10-49Q468.60-46 468.60-41.10L468.60-41.10L468.60-41.10Q468.60-23.50 438.20-23.50L438.20-23.50L438.20-23.50Q437.80-20.90 437.80-18.70L437.80-18.70L437.80-18.70Q437.80-14.10 439.85-12.35L439.85-12.35L439.85-12.35Q441.90-10.60 445.70-10.60L445.70-10.60L445.70-10.60Q449.50-10.60 453.55-12.35L453.55-12.35L453.55-12.35Q457.60-14.10 459.30-16.90ZM438.90-27.80L438.90-27.80L438.90-27.80Q446.00-27.80 450.10-32.20L450.10-32.20L450.10-32.20Q454.20-36.40 454.20-43.10L454.20-43.10L454.20-43.10Q454.20-45.40 453.35-46.65L453.35-46.65L453.35-46.65Q452.50-47.90 450.80-47.90L450.80-47.90L450.80-47.90Q449.10-47.90 447.65-47.25L447.65-47.25L447.65-47.25Q446.20-46.60 444.70-44.40L444.70-44.40L444.70-44.40Q441.00-39.40 438.90-27.80Z" fill="#4c0d9e"></path></g></g><style>text {
  font-size: 30px;
  font-family: Arial Black;
  dominant-baseline: central;
  text-anchor: middle;
}</style></svg>